<svg xmlns="http://www.w3.org/2000/svg" xmlns:xlink="http://www.w3.org/1999/xlink" id="body_1" preserveAspectRatio="xMinYMin meet" viewBox="0 0 816 1056"><defs><clipPath id="1"><path id="" clip-rule="evenodd" transform="matrix(1 0 0 1 0 0)" d="M0 792L0 0L0 0L612 0L612 0L612 792L612 792L0 792z" /></clipPath></defs><g transform="matrix(1.333333 0 0 1.333333 0 0)"><g clip-path="url(#1)"><path id="1" transform="matrix(1 0 0 -1 0 792)" d="M230.4 757.08L324.96 757.08L324.96 745.44L230.4 745.44z" stroke="none" fill="#FFFFFF" fill-rule="nonzero" /><path id="16" transform="matrix(1 0 0 -1 0 792)" d="M26.64 745.44L537.36 745.44L537.36 734.16L26.64 734.16z" stroke="none" fill="#FFFFFF" fill-rule="nonzero" /><path id="169" transform="matrix(1 0 0 -1 0 792)" d="M39.96 734.16L79.92 734.16L79.92 722.88L39.96 722.88z" stroke="none" fill="#FFFFFF" fill-rule="nonzero" /><path id="176" transform="matrix(1 0 0 -1 0 792)" d="M84.36 734.16L87.12 734.16L87.12 722.88L84.36 722.88z" stroke="none" fill="#FFFFFF" fill-rule="nonzero" /><path id="178" transform="matrix(1 0 0 -1 0 792)" d="M87.12 734.16L126.48 734.16L126.48 722.88L87.12 722.88z" stroke="none" fill="#FFFFFF" fill-rule="nonzero" /><path id="185" transform="matrix(1 0 0 -1 0 792)" d="M261.96 734.16L294 734.16L294 722.88L261.96 722.88z" stroke="none" fill="#FFFFFF" fill-rule="nonzero" /><path id="193" transform="matrix(1 0 0 -1 0 792)" d="M294 734.16L327.72 734.16L327.72 722.88L294 722.88z" stroke="none" fill="#FFFFFF" fill-rule="nonzero" /><path id="199" transform="matrix(1 0 0 -1 0 792)" d="M327.72 734.16L330.48 734.16L330.48 722.88L327.72 722.88z" stroke="none" fill="#FFFFFF" fill-rule="nonzero" /><path id="201" transform="matrix(1 0 0 -1 0 792)" d="M330.48 734.16L352.32 734.16L352.32 722.88L330.48 722.88z" stroke="none" fill="#FFFFFF" fill-rule="nonzero" /><path id="205" transform="matrix(1 0 0 -1 0 792)" d="M386.28 734.16L407.64 734.16L407.64 722.88L386.28 722.88z" stroke="none" fill="#FFFFFF" fill-rule="nonzero" /><path id="210" transform="matrix(1 0 0 -1 0 792)" d="M417.36 734.16L422.88 734.16L422.88 722.88L417.36 722.88z" stroke="none" fill="#FFFFFF" fill-rule="nonzero" /><path id="212" transform="matrix(1 0 0 -1 0 792)" d="M422.88 734.16L462.24 734.16L462.24 722.88L422.88 722.88z" stroke="none" fill="#FFFFFF" fill-rule="nonzero" /><path id="221" transform="matrix(1 0 0 -1 0 792)" d="M462.24 734.16L465 734.16L465 722.88L462.24 722.88z" stroke="none" fill="#FFFFFF" fill-rule="nonzero" /><path id="222" transform="matrix(1 0 0 -1 0 792)" d="M465 734.16L507.48 734.16L507.48 722.88L465 722.88z" stroke="none" fill="#FFFFFF" fill-rule="nonzero" /><path id="230" transform="matrix(1 0 0 -1 0 792)" d="M39.96 722.88L120.24 722.88L120.24 711.6L39.96 711.6z" stroke="none" fill="#FFFFFF" fill-rule="nonzero" /><path id="245" transform="matrix(1 0 0 -1 0 792)" d="M120.24 722.88L138.84 722.88L138.84 711.24L120.24 711.24z" stroke="none" fill="#FFFFFF" fill-rule="nonzero" /><path id="249" transform="matrix(1 0 0 -1 0 792)" d="M138.84 722.88L141.6 722.88L141.6 711.24L138.84 711.24z" stroke="none" fill="#FFFFFF" fill-rule="nonzero" /><path id="250" transform="matrix(1 0 0 -1 0 792)" d="M141.6 722.88L166.08 722.88L166.08 711.24L141.6 711.24z" stroke="none" fill="#FFFFFF" fill-rule="nonzero" /><path id="255" transform="matrix(1 0 0 -1 0 792)" d="M166.08 722.88L168.84 722.88L168.84 711.24L166.08 711.24z" stroke="none" fill="#FFFFFF" fill-rule="nonzero" /><path id="256" transform="matrix(1 0 0 -1 0 792)" d="M168.84 722.88L213 722.88L213 711.24L168.84 711.24z" stroke="none" fill="#FFFFFF" fill-rule="nonzero" /><path id="263" transform="matrix(1 0 0 -1 0 792)" d="M328.56 722.88L349.32 722.88L349.32 711.6L328.56 711.6z" stroke="none" fill="#FFFFFF" fill-rule="nonzero" /><path id="268" transform="matrix(1 0 0 -1 0 792)" d="M349.32 722.88L369.6 722.88L369.6 711.6L349.32 711.6z" stroke="none" fill="#FFFFFF" fill-rule="nonzero" /><path id="272" transform="matrix(1 0 0 -1 0 792)" d="M417.36 722.88L451.2 722.88L451.2 722.88L451.2 711.6L451.2 711.6L417.36 711.6z" stroke="none" fill="#FFFFFF" fill-rule="evenodd" /><path id="279" transform="matrix(1 0 0 -1 0 792)" d="M461.76 722.88L464.52 722.88L464.52 711.6L461.76 711.6z" stroke="none" fill="#FFFFFF" fill-rule="nonzero" /><path id="281" transform="matrix(1 0 0 -1 0 792)" d="M464.52 722.88L486.36 722.88L486.36 711.6L464.52 711.6z" stroke="none" fill="#FFFFFF" fill-rule="nonzero" /><path id="286" transform="matrix(1 0 0 -1 0 792)" d="M39.96 711.6L79.8 711.6L79.8 700.32L39.96 700.32z" stroke="none" fill="#FFFFFF" fill-rule="nonzero" /><path id="295" transform="matrix(1 0 0 -1 0 792)" d="M79.8 711.6L122.88 711.6L122.88 700.32L79.8 700.32z" stroke="none" fill="#FFFFFF" fill-rule="nonzero" /><path id="304" transform="matrix(1 0 0 -1 0 792)" d="M122.88 711.6L125.64 711.6L125.64 700.32L122.88 700.32z" stroke="none" fill="#FFFFFF" fill-rule="nonzero" /><path id="305" transform="matrix(1 0 0 -1 0 792)" d="M125.64 711.6L168.72 711.6L168.72 700.32L125.64 700.32z" stroke="none" fill="#FFFFFF" fill-rule="nonzero" /><path id="314" transform="matrix(1 0 0 -1 0 792)" d="M168.72 711.6L171.48 711.6L171.48 700.32L168.72 700.32z" stroke="none" fill="#FFFFFF" fill-rule="nonzero" /><path id="315" transform="matrix(1 0 0 -1 0 792)" d="M171.48 711.6L214.56 711.6L214.56 700.32L171.48 700.32z" stroke="none" fill="#FFFFFF" fill-rule="nonzero" /><path id="324" transform="matrix(1 0 0 -1 0 792)" d="M39.96 700.32L55.56 700.32L55.56 689.04L39.96 689.04z" stroke="none" fill="#FFFFFF" fill-rule="nonzero" /><path id="329" transform="matrix(1 0 0 -1 0 792)" d="M55.56 700.32L286.32 700.32L286.32 689.04L55.56 689.04z" stroke="none" fill="#FFFFFF" fill-rule="nonzero" /><path id="365" transform="matrix(1 0 0 -1 0 792)" d="M29.52 688.44L540.24 688.44L540.24 676.56L29.52 676.56z" stroke="none" fill="#FFFFFF" fill-rule="nonzero" /><path id="518" transform="matrix(1 0 0 -1 0 792)" d="M44.28 676.56L71.88 676.56L71.88 664.68L44.28 664.68z" stroke="none" fill="#FFFFFF" fill-rule="nonzero" /><path id="525" transform="matrix(1 0 0 -1 0 792)" d="M118.08 676.56L175.56 676.56L175.56 664.68L118.08 664.68z" stroke="none" fill="#FFFFFF" fill-rule="nonzero" /><path id="537" transform="matrix(1 0 0 -1 0 792)" d="M447.72 676.56L465.24 676.56L465.24 664.68L447.72 664.68z" stroke="none" fill="#FFFFFF" fill-rule="nonzero" /><path id="541" transform="matrix(1 0 0 -1 0 792)" d="M487.08 676.56L526.08 676.56L526.08 664.68L487.08 664.68z" stroke="none" fill="#FFFFFF" fill-rule="nonzero" /><path id="548" transform="matrix(1 0 0 -1 0 792)" d="M29.52 664.68L540.24 664.68L540.24 652.8L29.52 652.8z" stroke="none" fill="#FFFFFF" fill-rule="nonzero" /><path id="701" transform="matrix(1 0 0 -1 0 792)" d="M54.12 652.8L65.28 652.8L65.28 640.92L54.12 640.92z" stroke="none" fill="#FFFFFF" fill-rule="nonzero" /><path id="703" transform="matrix(1 0 0 -1 0 792)" d="M65.28 652.8L68.04 652.8L68.04 640.92L65.28 640.92z" stroke="none" fill="#FFFFFF" fill-rule="nonzero" /><path id="705" transform="matrix(1 0 0 -1 0 792)" d="M103.32 652.8L121.08 652.8L121.08 640.92L103.32 640.92z" stroke="none" fill="#FFFFFF" fill-rule="nonzero" /><path id="709" transform="matrix(1 0 0 -1 0 792)" d="M121.08 652.8L129.96 652.8L129.96 640.92L121.08 640.92z" stroke="none" fill="#FFFFFF" fill-rule="nonzero" /><path id="711" transform="matrix(1 0 0 -1 0 792)" d="M129.96 652.8L204.72 652.8L204.72 640.92L129.96 640.92z" stroke="none" fill="#FFFFFF" fill-rule="nonzero" /><path id="724" transform="matrix(1 0 0 -1 0 792)" d="M447.72 652.8L458.88 652.8L458.88 640.92L447.72 640.92z" stroke="none" fill="#FFFFFF" fill-rule="nonzero" /><path id="726" transform="matrix(1 0 0 -1 0 792)" d="M496.92 652.8L533.52 652.8L533.52 640.92L496.92 640.92z" stroke="none" fill="#FFFFFF" fill-rule="nonzero" /><path id="734" transform="matrix(1 0 0 -1 0 792)" d="M29.52 569.64L540.24 569.64L540.24 557.76L29.52 557.76z" stroke="none" fill="#FFFFFF" fill-rule="nonzero" /><path id="887" transform="matrix(1 0 0 -1 0 792)" d="M44.28 557.76L106.08 557.76L106.08 545.88L44.28 545.88z" stroke="none" fill="#FFFFFF" fill-rule="nonzero" /><path id="898" transform="matrix(1 0 0 -1 0 792)" d="M118.08 557.76L120.84 557.76L120.84 545.88L118.08 545.88z" stroke="none" fill="#FFFFFF" fill-rule="nonzero" /><path id="900" transform="matrix(1 0 0 -1 0 792)" d="M152.52 557.76L189.12 557.76L189.12 545.88L152.52 545.88z" stroke="none" fill="#FFFFFF" fill-rule="nonzero" /><path id="908" transform="matrix(1 0 0 -1 0 792)" d="M364.08 557.76L429.24 557.76L429.24 545.88L364.08 545.88z" stroke="none" fill="#FFFFFF" fill-rule="nonzero" /><path id="920" transform="matrix(1 0 0 -1 0 792)" d="M437.88 557.76L440.64 557.76L440.64 545.88L437.88 545.88z" stroke="none" fill="#FFFFFF" fill-rule="nonzero" /><path id="922" transform="matrix(1 0 0 -1 0 792)" d="M496.92 557.76L533.52 557.76L533.52 545.88L496.92 545.88z" stroke="none" fill="#FFFFFF" fill-rule="nonzero" /><path id="930" transform="matrix(1 0 0 -1 0 792)" d="M44.28 545.88L90.12 545.88L90.12 534L44.28 534z" stroke="none" fill="#FFFFFF" fill-rule="nonzero" /><path id="938" transform="matrix(1 0 0 -1 0 792)" d="M118.08 545.88L120.84 545.88L120.84 534L118.08 534z" stroke="none" fill="#FFFFFF" fill-rule="nonzero" /><path id="940" transform="matrix(1 0 0 -1 0 792)" d="M152.52 545.88L189.12 545.88L189.12 534L152.52 534z" stroke="none" fill="#FFFFFF" fill-rule="nonzero" /><path id="948" transform="matrix(1 0 0 -1 0 792)" d="M364.08 545.88L429.24 545.88L429.24 534L364.08 534z" stroke="none" fill="#FFFFFF" fill-rule="nonzero" /><path id="961" transform="matrix(1 0 0 -1 0 792)" d="M437.88 545.88L440.64 545.88L440.64 534L437.88 534z" stroke="none" fill="#FFFFFF" fill-rule="nonzero" /><path id="963" transform="matrix(1 0 0 -1 0 792)" d="M501.84 545.88L532.8 545.88L532.8 534L501.84 534z" stroke="none" fill="#FFFFFF" fill-rule="nonzero" /><path id="970" transform="matrix(1 0 0 -1 0 792)" d="M226.32 534L259.92 534L259.92 522.12L226.32 522.12z" stroke="none" fill="#FFFFFF" fill-rule="nonzero" /><path id="976" transform="matrix(1 0 0 -1 0 792)" d="M259.92 534L276.72 534L276.72 522.12L259.92 522.12z" stroke="none" fill="#FFFFFF" fill-rule="nonzero" /><path id="979" transform="matrix(1 0 0 -1 0 792)" d="M276.72 534L284.52 534L284.52 522.12L276.72 522.12z" stroke="none" fill="#FFFFFF" fill-rule="nonzero" /><path id="981" transform="matrix(1 0 0 -1 0 792)" d="M437.88 534L440.64 534L440.64 522.12L437.88 522.12z" stroke="none" fill="#FFFFFF" fill-rule="nonzero" /><path id="983" transform="matrix(1 0 0 -1 0 792)" d="M501.84 534L532.8 534L532.8 522.12L501.84 522.12z" stroke="none" fill="#FFFFFF" fill-rule="nonzero" /><path id="990" transform="matrix(1 0 0 -1 0 792)" d="M44.28 522.12L109.92 522.12L109.92 510.24L44.28 510.24z" stroke="none" fill="#FFFFFF" fill-rule="nonzero" /><path id="1002" transform="matrix(1 0 0 -1 0 792)" d="M118.08 522.12L120.84 522.12L120.84 510.24L118.08 510.24z" stroke="none" fill="#FFFFFF" fill-rule="nonzero" /><path id="1004" transform="matrix(1 0 0 -1 0 792)" d="M152.52 522.12L189.12 522.12L189.12 510.24L152.52 510.24z" stroke="none" fill="#FFFFFF" fill-rule="nonzero" /><path id="1012" transform="matrix(1 0 0 -1 0 792)" d="M364.08 522.12L418.2 522.12L418.2 510.24L364.08 510.24z" stroke="none" fill="#FFFFFF" fill-rule="nonzero" /><path id="1023" transform="matrix(1 0 0 -1 0 792)" d="M437.88 522.12L440.64 522.12L440.64 510.24L437.88 510.24z" stroke="none" fill="#FFFFFF" fill-rule="nonzero" /><path id="1025" transform="matrix(1 0 0 -1 0 792)" d="M496.92 522.12L533.52 522.12L533.52 510.24L496.92 510.24z" stroke="none" fill="#FFFFFF" fill-rule="nonzero" /><path id="1033" transform="matrix(1 0 0 -1 0 792)" d="M44.28 510.24L76.44 510.24L76.44 498.36L44.28 498.36z" stroke="none" fill="#FFFFFF" fill-rule="nonzero" /><path id="1039" transform="matrix(1 0 0 -1 0 792)" d="M76.44 510.24L103.56 510.24L103.56 498.36L76.44 498.36z" stroke="none" fill="#FFFFFF" fill-rule="nonzero" /><path id="1044" transform="matrix(1 0 0 -1 0 792)" d="M29.52 498.36L540.24 498.36L540.24 486.48L29.52 486.48z" stroke="none" fill="#FFFFFF" fill-rule="nonzero" /><path id="1197" transform="matrix(1 0 0 -1 0 792)" d="M44.28 486.48L83.28 486.48L83.28 474.6L44.28 474.6z" stroke="none" fill="#FFFFFF" fill-rule="nonzero" /><path id="1205" transform="matrix(1 0 0 -1 0 792)" d="M83.28 486.48L226.44 486.48L226.44 474.6L83.28 474.6z" stroke="none" fill="#FFFFFF" fill-rule="nonzero" /><path id="1231" transform="matrix(1 0 0 -1 0 792)" d="M29.52 474.6L540.24 474.6L540.24 462.72L29.52 462.72z" stroke="none" fill="#FFFFFF" fill-rule="nonzero" /><path id="1384" transform="matrix(1 0 0 -1 0 792)" d="M31.68 462.72L119.52 462.72L119.52 453L31.68 453z" stroke="none" fill="#FFFFFF" fill-rule="nonzero" /><path id="1409" transform="matrix(1 0 0 -1 0 792)" d="M119.52 462.72L187.56 462.72L187.56 453L119.52 453z" stroke="none" fill="#FFFFFF" fill-rule="nonzero" /><path id="1429" transform="matrix(1 0 0 -1 0 792)" d="M487.08 462.72L525.36 462.72L525.36 450.84L487.08 450.84z" stroke="none" fill="#FFFFFF" fill-rule="nonzero" /><path id="1437" transform="matrix(1 0 0 -1 0 792)" d="M442.8 450.84L460.08 450.84L460.08 438.96L442.8 438.96z" stroke="none" fill="#FFFFFF" fill-rule="nonzero" /><path id="1441" transform="matrix(1 0 0 -1 0 792)" d="M460.08 450.84L525.12 450.84L525.12 438.96L460.08 438.96z" stroke="none" fill="#FFFFFF" fill-rule="nonzero" /></g></g></svg>